<svg width="800" height="800" viewBox="0 0 800 800" fill="none" xmlns="http://www.w3.org/2000/svg">
<path fill-rule="evenodd" clip-rule="evenodd" d="M475.277 134.581C475.277 134.581 88.5196 96.016 80.1196 447.653C71.7196 799.293 508.432 676.227 539.002 624.277C569.573 572.341 584.416 449.632 455.242 410.461L475.277 134.581Z" fill="#ED5481" stroke="black" stroke-width="21.3333" stroke-miterlimit="10" stroke-linecap="round" stroke-linejoin="round"/>
<path fill-rule="evenodd" clip-rule="evenodd" d="M453.837 409.304C453.837 409.304 399.461 485.691 379.858 529.971C360.256 574.237 299.341 617.573 250.648 573.771C201.952 529.971 119.202 318.675 286.52 236.488C453.837 154.293 538.666 276.101 538.666 276.101" fill="#595959"/>
<path d="M453.837 409.304C453.837 409.304 399.461 485.691 379.858 529.971C360.256 574.237 299.341 617.573 250.648 573.771C201.952 529.971 119.202 318.675 286.52 236.488C453.837 154.293 538.666 276.101 538.666 276.101" stroke="black" stroke-width="21.3333" stroke-miterlimit="10" stroke-linecap="round" stroke-linejoin="round"/>
<path fill-rule="evenodd" clip-rule="evenodd" d="M741.178 398.779C741.178 398.779 756.984 194.323 470.144 133.333C470.144 133.333 322.981 326.091 454.976 410.667C454.976 410.667 477.917 385.805 559.229 381.221C640.538 376.64 741.178 398.779 741.178 398.779Z" fill="#26BBEC" stroke="black" stroke-width="21.3333" stroke-miterlimit="10" stroke-linecap="round" stroke-linejoin="round"/>
<path d="M741.333 400C741.333 400 557.2 294.963 421.333 354.013" stroke="black" stroke-width="21.3333" stroke-miterlimit="10" stroke-linecap="round" stroke-linejoin="round"/>
<path d="M309.333 389.333C341.733 389.333 367.999 363.067 367.999 330.667C367.999 298.266 341.733 272 309.333 272C276.932 272 250.666 298.266 250.666 330.667C250.666 363.067 276.932 389.333 309.333 389.333Z" fill="white" stroke="black" stroke-width="21.3333" stroke-miterlimit="10" stroke-linecap="round" stroke-linejoin="round"/>
<path d="M324.333 374.333C336.115 374.333 345.667 364.782 345.667 353C345.667 341.218 336.115 331.667 324.333 331.667C312.551 331.667 303 341.218 303 353C303 364.782 312.551 374.333 324.333 374.333Z" fill="#26BBEC" stroke="black" stroke-width="21.3333" stroke-miterlimit="10" stroke-linecap="round" stroke-linejoin="round"/>
</svg>
